<svg xmlns="http://www.w3.org/2000/svg" width="192" height="192" viewBox="0 0 192 192" shape-rendering="crispEdges">
  <rect width="192" height="192" fill="#6050DC"/>
  <!-- top highlight -->
  <rect x="0" y="0" width="192" height="8" fill="#8B7CF6"/>
  <rect x="0" y="0" width="8" height="192" fill="#8B7CF6"/>
  <!-- bottom shadow -->
  <rect x="0" y="184" width="192" height="8" fill="#3B2F8A"/>
  <rect x="184" y="0" width="8" height="192" fill="#3B2F8A"/>
  <!-- RB letters pixel-style -->
  <!-- R -->
  <rect x="48" y="56" width="16" height="16" fill="#FFD700"/>
  <rect x="48" y="72" width="16" height="16" fill="#FFD700"/>
  <rect x="48" y="88" width="16" height="16" fill="#FFD700"/>
  <rect x="48" y="104" width="16" height="16" fill="#FFD700"/>
  <rect x="48" y="120" width="16" height="16" fill="#FFD700"/>
  <rect x="64" y="56" width="16" height="16" fill="#FFD700"/>
  <rect x="80" y="56" width="16" height="16" fill="#FFD700"/>
  <rect x="80" y="72" width="16" height="16" fill="#FFD700"/>
  <rect x="64" y="88" width="16" height="16" fill="#FFD700"/>
  <rect x="80" y="104" width="16" height="16" fill="#FFD700"/>
  <rect x="64" y="120" width="16" height="16" fill="#FFD700"/>
  <!-- B -->
  <rect x="104" y="56" width="16" height="16" fill="#FFD700"/>
  <rect x="104" y="72" width="16" height="16" fill="#FFD700"/>
  <rect x="104" y="88" width="16" height="16" fill="#FFD700"/>
  <rect x="104" y="104" width="16" height="16" fill="#FFD700"/>
  <rect x="104" y="120" width="16" height="16" fill="#FFD700"/>
  <rect x="120" y="56" width="16" height="16" fill="#FFD700"/>
  <rect x="136" y="56" width="16" height="16" fill="#FFD700"/>
  <rect x="120" y="72" width="16" height="16" fill="#FFD700"/>
  <rect x="136" y="88" width="16" height="16" fill="#FFD700"/>
  <rect x="120" y="104" width="16" height="16" fill="#FFD700"/>
  <rect x="136" y="120" width="16" height="16" fill="#FFD700"/>
  <rect x="120" y="120" width="16" height="16" fill="#FFD700"/>
</svg>
