<svg xmlns="http://www.w3.org/2000/svg" width="512" height="512" viewBox="0 0 512 512" shape-rendering="crispEdges">
  <rect width="512" height="512" fill="#6050DC"/>
  <rect x="0" y="0" width="512" height="16" fill="#8B7CF6"/>
  <rect x="0" y="0" width="16" height="512" fill="#8B7CF6"/>
  <rect x="0" y="496" width="512" height="16" fill="#3B2F8A"/>
  <rect x="496" y="0" width="16" height="512" fill="#3B2F8A"/>
  <!-- R -->
  <rect x="128" y="160" width="32" height="32" fill="#FFD700"/>
  <rect x="128" y="192" width="32" height="32" fill="#FFD700"/>
  <rect x="128" y="224" width="32" height="32" fill="#FFD700"/>
  <rect x="128" y="256" width="32" height="32" fill="#FFD700"/>
  <rect x="128" y="288" width="32" height="32" fill="#FFD700"/>
  <rect x="160" y="160" width="32" height="32" fill="#FFD700"/>
  <rect x="192" y="160" width="32" height="32" fill="#FFD700"/>
  <rect x="224" y="160" width="32" height="32" fill="#FFD700"/>
  <rect x="192" y="192" width="32" height="32" fill="#FFD700"/>
  <rect x="160" y="224" width="32" height="32" fill="#FFD700"/>
  <rect x="192" y="256" width="32" height="32" fill="#FFD700"/>
  <rect x="160" y="288" width="32" height="32" fill="#FFD700"/>
  <rect x="224" y="256" width="32" height="32" fill="#FFD700"/>
  <rect x="192" y="288" width="32" height="32" fill="#FFD700"/>
  <!-- B -->
  <rect x="288" y="160" width="32" height="32" fill="#FFD700"/>
  <rect x="288" y="192" width="32" height="32" fill="#FFD700"/>
  <rect x="288" y="224" width="32" height="32" fill="#FFD700"/>
  <rect x="288" y="256" width="32" height="32" fill="#FFD700"/>
  <rect x="288" y="288" width="32" height="32" fill="#FFD700"/>
  <rect x="320" y="160" width="32" height="32" fill="#FFD700"/>
  <rect x="352" y="160" width="32" height="32" fill="#FFD700"/>
  <rect x="320" y="192" width="32" height="32" fill="#FFD700"/>
  <rect x="352" y="224" width="32" height="32" fill="#FFD700"/>
  <rect x="320" y="256" width="32" height="32" fill="#FFD700"/>
  <rect x="352" y="288" width="32" height="32" fill="#FFD700"/>
  <rect x="320" y="288" width="32" height="32" fill="#FFD700"/>
  <rect x="352" y="192" width="32" height="32" fill="#FFD700"/>
</svg>
